<svg width="20" height="20" viewBox="0 0 20 20" fill="none" xmlns="http://www.w3.org/2000/svg">
<path d="M10 18.3334C9.15278 18.3334 8.28472 18.1806 7.39583 17.8751C6.50694 17.5695 5.70139 17.1529 4.97917 16.6251C4.25694 16.0973 3.66319 15.4792 3.19792 14.7709C2.73264 14.0626 2.5 13.3056 2.5 12.5001V10.0001L5.83333 12.5001L4.54167 13.7917C4.94444 14.5001 5.58333 15.1112 6.45833 15.6251C7.33333 16.139 8.23611 16.4654 9.16667 16.6042V9.16675H6.66667V7.50008H9.16667V6.52092C8.68056 6.34036 8.28125 6.03828 7.96875 5.61467C7.65625 5.19105 7.5 4.70842 7.5 4.16675C7.5 3.4723 7.74306 2.88203 8.22917 2.39591C8.71528 1.9098 9.30556 1.66675 10 1.66675C10.6944 1.66675 11.2847 1.9098 11.7708 2.39591C12.2569 2.88203 12.5 3.4723 12.5 4.16675C12.5 4.70842 12.3438 5.19105 12.0312 5.61467C11.7188 6.03828 11.3194 6.34036 10.8333 6.52092V7.50008H13.3333V9.16675H10.8333V16.6042C11.7639 16.4654 12.6667 16.139 13.5417 15.6251C14.4167 15.1112 15.0556 14.5001 15.4583 13.7917L14.1667 12.5001L17.5 10.0001V12.5001C17.5 13.3056 17.2674 14.0626 16.8021 14.7709C16.3368 15.4792 15.7431 16.0973 15.0208 16.6251C14.2986 17.1529 13.4931 17.5695 12.6042 17.8751C11.7153 18.1806 10.8472 18.3334 10 18.3334ZM10 5.00008C10.2361 5.00008 10.434 4.92022 10.5938 4.7605C10.7535 4.60078 10.8333 4.40286 10.8333 4.16675C10.8333 3.93064 10.7535 3.73272 10.5938 3.573C10.434 3.41328 10.2361 3.33341 10 3.33341C9.76389 3.33341 9.56597 3.41328 9.40625 3.573C9.24653 3.73272 9.16667 3.93064 9.16667 4.16675C9.16667 4.40286 9.24653 4.60078 9.40625 4.7605C9.56597 4.92022 9.76389 5.00008 10 5.00008Z" fill="currentColor"/>
</svg>
