<svg width="20" height="20" viewBox="0 0 20 20" fill="none" xmlns="http://www.w3.org/2000/svg">
<path d="M12.5 16.6666C10.6389 16.6666 9.06254 16.0208 7.77087 14.7291C6.47921 13.4374 5.83337 11.861 5.83337 9.99992C5.83337 8.13881 6.47921 6.56242 7.77087 5.27075C9.06254 3.97909 10.6389 3.33325 12.5 3.33325C14.3612 3.33325 15.9375 3.97909 17.2292 5.27075C18.5209 6.56242 19.1667 8.13881 19.1667 9.99992C19.1667 11.861 18.5209 13.4374 17.2292 14.7291C15.9375 16.0208 14.3612 16.6666 12.5 16.6666ZM5.83337 16.4583C4.36115 16.0694 3.15976 15.2777 2.22921 14.0833C1.29865 12.8888 0.833374 11.5277 0.833374 9.99992C0.833374 8.47214 1.29865 7.11103 2.22921 5.91659C3.15976 4.72214 4.36115 3.93047 5.83337 3.54159V5.29159C4.83337 5.63881 4.02782 6.24297 3.41671 7.10409C2.8056 7.9652 2.50004 8.93047 2.50004 9.99992C2.50004 11.0694 2.8056 12.0346 3.41671 12.8958C4.02782 13.7569 4.83337 14.361 5.83337 14.7083V16.4583ZM12.5 14.9999C13.8889 14.9999 15.0695 14.5138 16.0417 13.5416C17.0139 12.5694 17.5 11.3888 17.5 9.99992C17.5 8.61103 17.0139 7.43047 16.0417 6.45825C15.0695 5.48603 13.8889 4.99992 12.5 4.99992C11.1112 4.99992 9.9306 5.48603 8.95837 6.45825C7.98615 7.43047 7.50004 8.61103 7.50004 9.99992C7.50004 11.3888 7.98615 12.5694 8.95837 13.5416C9.9306 14.5138 11.1112 14.9999 12.5 14.9999Z" fill="currentColor"/>
</svg>
