<svg width="100%" height="100%" viewBox="0 0 17 16" fill="none" xmlns="http://www.w3.org/2000/svg">
<path d="M4.98006 9.33341C4.6134 9.33341 4.29951 9.20286 4.0384 8.94175C3.77728 8.68064 3.64673 8.36675 3.64673 8.00008C3.64673 7.63341 3.77728 7.31953 4.0384 7.05841C4.29951 6.7973 4.6134 6.66675 4.98006 6.66675C5.34673 6.66675 5.66062 6.7973 5.92173 7.05841C6.18284 7.31953 6.3134 7.63341 6.3134 8.00008C6.3134 8.36675 6.18284 8.68064 5.92173 8.94175C5.66062 9.20286 5.34673 9.33341 4.98006 9.33341ZM8.98006 9.33341C8.6134 9.33341 8.29951 9.20286 8.0384 8.94175C7.77728 8.68064 7.64673 8.36675 7.64673 8.00008C7.64673 7.63341 7.77728 7.31953 8.0384 7.05841C8.29951 6.7973 8.6134 6.66675 8.98006 6.66675C9.34673 6.66675 9.66062 6.7973 9.92173 7.05841C10.1828 7.31953 10.3134 7.63341 10.3134 8.00008C10.3134 8.36675 10.1828 8.68064 9.92173 8.94175C9.66062 9.20286 9.34673 9.33341 8.98006 9.33341ZM12.9801 9.33341C12.6134 9.33341 12.2995 9.20286 12.0384 8.94175C11.7773 8.68064 11.6467 8.36675 11.6467 8.00008C11.6467 7.63341 11.7773 7.31953 12.0384 7.05841C12.2995 6.7973 12.6134 6.66675 12.9801 6.66675C13.3467 6.66675 13.6606 6.7973 13.9217 7.05841C14.1828 7.31953 14.3134 7.63341 14.3134 8.00008C14.3134 8.36675 14.1828 8.68064 13.9217 8.94175C13.6606 9.20286 13.3467 9.33341 12.9801 9.33341Z" fill="currentColor"/>
</svg>
