<svg width="100%" height="100%" viewBox="0 0 17 16" fill="none" xmlns="http://www.w3.org/2000/svg">
<path d="M3.32 13.3334C2.65333 13.3334 2.08388 13.0945 1.61166 12.6167C1.13944 12.139 0.892217 11.5612 0.869995 10.8834C0.869995 10.7834 0.875551 10.6834 0.886662 10.5834C0.897773 10.4834 0.91444 10.3834 0.936662 10.2834L2.33666 4.68341C2.49222 4.08341 2.80888 3.5973 3.28666 3.22508C3.76444 2.85286 4.30888 2.66675 4.92 2.66675H11.42C12.0311 2.66675 12.5756 2.85286 13.0533 3.22508C13.5311 3.5973 13.8478 4.08341 14.0033 4.68341L15.4033 10.2834C15.4256 10.3834 15.445 10.4862 15.4617 10.5917C15.4783 10.6973 15.4867 10.8001 15.4867 10.9001C15.4867 11.5779 15.245 12.1529 14.7617 12.6251C14.2783 13.0973 13.6978 13.3334 13.02 13.3334C12.5533 13.3334 12.12 13.2112 11.72 12.9667C11.32 12.7223 11.02 12.389 10.82 11.9667L10.3533 11.0001C10.2978 10.889 10.2144 10.8056 10.1033 10.7501C9.99222 10.6945 9.87555 10.6667 9.75333 10.6667H6.58666C6.46444 10.6667 6.34777 10.6945 6.23666 10.7501C6.12555 10.8056 6.04222 10.889 5.98666 11.0001L5.52 11.9667C5.32 12.389 5.02 12.7223 4.62 12.9667C4.22 13.2112 3.78666 13.3334 3.32 13.3334ZM3.37 12.0001C3.58111 12.0001 3.77277 11.9445 3.945 11.8334C4.11722 11.7223 4.24777 11.5723 4.33666 11.3834L4.80333 10.4334C4.97 10.089 5.21444 9.81953 5.53666 9.62508C5.85888 9.43064 6.20888 9.33342 6.58666 9.33342H9.75333C10.1311 9.33342 10.4811 9.43341 10.8033 9.63342C11.1256 9.83342 11.3756 10.1001 11.5533 10.4334L12.02 11.3834C12.1089 11.5723 12.2394 11.7223 12.4117 11.8334C12.5839 11.9445 12.7756 12.0001 12.9867 12.0001C13.2978 12.0001 13.5644 11.8973 13.7867 11.6917C14.0089 11.4862 14.1256 11.2279 14.1367 10.9167C14.1367 10.9279 14.1256 10.8223 14.1033 10.6001L12.7033 5.01675C12.6256 4.71675 12.47 4.4723 12.2367 4.28341C12.0033 4.09453 11.7311 4.00008 11.42 4.00008H4.92C4.60888 4.00008 4.33388 4.09453 4.095 4.28341C3.85611 4.4723 3.70333 4.71675 3.63666 5.01675L2.23666 10.6001C2.21444 10.6667 2.20333 10.7667 2.20333 10.9001C2.20333 11.2112 2.31722 11.4723 2.545 11.6834C2.77277 11.8945 3.04777 12.0001 3.37 12.0001ZM9.17 7.33342C9.35888 7.33342 9.51722 7.26953 9.645 7.14175C9.77277 7.01397 9.83666 6.85564 9.83666 6.66675C9.83666 6.47786 9.77277 6.31953 9.645 6.19175C9.51722 6.06397 9.35888 6.00008 9.17 6.00008C8.98111 6.00008 8.82277 6.06397 8.695 6.19175C8.56722 6.31953 8.50333 6.47786 8.50333 6.66675C8.50333 6.85564 8.56722 7.01397 8.695 7.14175C8.82277 7.26953 8.98111 7.33342 9.17 7.33342ZM10.5033 6.00008C10.6922 6.00008 10.8506 5.93619 10.9783 5.80841C11.1061 5.68064 11.17 5.5223 11.17 5.33341C11.17 5.14453 11.1061 4.98619 10.9783 4.85841C10.8506 4.73064 10.6922 4.66675 10.5033 4.66675C10.3144 4.66675 10.1561 4.73064 10.0283 4.85841C9.90055 4.98619 9.83666 5.14453 9.83666 5.33341C9.83666 5.5223 9.90055 5.68064 10.0283 5.80841C10.1561 5.93619 10.3144 6.00008 10.5033 6.00008ZM10.5033 8.66675C10.6922 8.66675 10.8506 8.60286 10.9783 8.47508C11.1061 8.3473 11.17 8.18897 11.17 8.00008C11.17 7.81119 11.1061 7.65286 10.9783 7.52508C10.8506 7.3973 10.6922 7.33342 10.5033 7.33342C10.3144 7.33342 10.1561 7.3973 10.0283 7.52508C9.90055 7.65286 9.83666 7.81119 9.83666 8.00008C9.83666 8.18897 9.90055 8.3473 10.0283 8.47508C10.1561 8.60286 10.3144 8.66675 10.5033 8.66675ZM11.8367 7.33342C12.0256 7.33342 12.1839 7.26953 12.3117 7.14175C12.4394 7.01397 12.5033 6.85564 12.5033 6.66675C12.5033 6.47786 12.4394 6.31953 12.3117 6.19175C12.1839 6.06397 12.0256 6.00008 11.8367 6.00008C11.6478 6.00008 11.4894 6.06397 11.3617 6.19175C11.2339 6.31953 11.17 6.47786 11.17 6.66675C11.17 6.85564 11.2339 7.01397 11.3617 7.14175C11.4894 7.26953 11.6478 7.33342 11.8367 7.33342ZM5.83666 8.33342C5.98111 8.33342 6.10055 8.28619 6.195 8.19175C6.28944 8.0973 6.33666 7.97786 6.33666 7.83342V7.16675H7.00333C7.14777 7.16675 7.26722 7.11953 7.36166 7.02508C7.45611 6.93064 7.50333 6.81119 7.50333 6.66675C7.50333 6.5223 7.45611 6.40286 7.36166 6.30841C7.26722 6.21397 7.14777 6.16675 7.00333 6.16675H6.33666V5.50008C6.33666 5.35564 6.28944 5.23619 6.195 5.14175C6.10055 5.0473 5.98111 5.00008 5.83666 5.00008C5.69222 5.00008 5.57277 5.0473 5.47833 5.14175C5.38388 5.23619 5.33666 5.35564 5.33666 5.50008V6.16675H4.67C4.52555 6.16675 4.40611 6.21397 4.31166 6.30841C4.21722 6.40286 4.17 6.5223 4.17 6.66675C4.17 6.81119 4.21722 6.93064 4.31166 7.02508C4.40611 7.11953 4.52555 7.16675 4.67 7.16675H5.33666V7.83342C5.33666 7.97786 5.38388 8.0973 5.47833 8.19175C5.57277 8.28619 5.69222 8.33342 5.83666 8.33342Z" fill="currentColor"/>
</svg>
