<svg width="30" height="30" viewBox="0 0 30 30" fill="none" xmlns="http://www.w3.org/2000/svg">
<path d="M15.131 1.82848e-06C6.74302 -0.0669982 -0.068977 6.744 0.00102298 15.132C0.070023 23.276 6.72502 29.931 14.869 30C23.257 30.072 30.071 23.258 29.999 14.87C29.932 6.727 23.276 0.0700018 15.131 1.82848e-06Z" fill="#0086FF"/>
<path d="M14.9781 4.63403C15.5151 4.63403 15.9501 5.06903 15.9501 5.60603V6.85403C18.9321 8.24603 20.8851 10.556 20.8851 13.169C20.8851 14.702 20.2151 16.129 19.0581 17.329C18.8361 17.559 18.5281 17.689 18.2061 17.689H15.9521V19.546H18.7821C19.3921 19.546 20.4881 18.388 21.0071 17.69C21.0071 17.69 21.0291 17.656 21.0891 17.638C21.1491 17.62 26.2871 16.441 26.2871 16.441C26.3121 16.4343 26.3383 16.4334 26.3637 16.4384C26.3891 16.4434 26.413 16.4541 26.4337 16.4697C26.4543 16.4853 26.4711 16.5055 26.4828 16.5286C26.4945 16.5517 26.5007 16.5771 26.5011 16.603V17.684C26.5011 17.754 26.4641 17.814 26.3991 17.842C26.0471 17.992 24.8841 18.532 24.3991 19.204C23.1521 20.941 22.1991 23.671 20.0691 23.671H11.1821C8.03505 23.671 5.40205 21.173 5.40405 17.846C5.40405 17.764 5.47405 17.696 5.55705 17.696H9.76905C9.91405 17.696 10.0291 17.813 10.0291 17.956V18.769C10.0291 19.201 10.3781 19.552 10.8111 19.552H14.0061V17.692H11.8241C13.1252 16.0457 13.8308 14.0074 13.8261 11.909C13.8261 9.47203 12.8921 7.24903 11.3621 5.58703C12.2871 5.69503 13.1721 5.87903 14.0061 6.12403V5.60603C14.0061 5.06903 14.4411 4.63403 14.9781 4.63403ZM10.6451 7.46403C11.6423 8.72892 12.1835 10.2933 12.1811 11.904C12.1811 13.354 11.7511 14.704 11.0111 15.83H5.81105L10.6451 7.46403Z" fill="white"/>
</svg>
