<svg width="100%" height="100%" viewBox="0 0 17 16" fill="none" xmlns="http://www.w3.org/2000/svg">
<path d="M4.91007 14.0001C4.41007 14.0001 3.91563 13.8778 3.42674 13.6334C2.93785 13.3889 2.54341 13.0667 2.24341 12.6667C2.5323 12.6667 2.82674 12.5528 3.12674 12.3251C3.42674 12.0973 3.57674 11.7667 3.57674 11.3334C3.57674 10.7778 3.77119 10.3056 4.16007 9.91672C4.54896 9.52783 5.02119 9.33339 5.57674 9.33339C6.1323 9.33339 6.60452 9.52783 6.99341 9.91672C7.3823 10.3056 7.57674 10.7778 7.57674 11.3334C7.57674 12.0667 7.31563 12.6945 6.79341 13.2167C6.27119 13.7389 5.64341 14.0001 4.91007 14.0001ZM4.91007 12.6667C5.27674 12.6667 5.59063 12.5362 5.85174 12.2751C6.11285 12.0139 6.24341 11.7001 6.24341 11.3334C6.24341 11.1445 6.17952 10.9862 6.05174 10.8584C5.92396 10.7306 5.76563 10.6667 5.57674 10.6667C5.38785 10.6667 5.22952 10.7306 5.10174 10.8584C4.97396 10.9862 4.91007 11.1445 4.91007 11.3334C4.91007 11.5889 4.87952 11.8223 4.81841 12.0334C4.7573 12.2445 4.67674 12.4445 4.57674 12.6334C4.6323 12.6556 4.68785 12.6667 4.74341 12.6667H4.91007ZM8.74341 10.0001L6.91008 8.16672L12.8767 2.20006C12.999 2.07783 13.1517 2.01395 13.3351 2.00839C13.5184 2.00283 13.6767 2.06672 13.8101 2.20006L14.7101 3.10006C14.8434 3.23339 14.9101 3.38895 14.9101 3.56672C14.9101 3.7445 14.8434 3.90006 14.7101 4.03339L8.74341 10.0001Z" fill="currentColor"/>
</svg>
