<svg width="100%" height="100%" viewBox="0 0 17 16" fill="none" xmlns="http://www.w3.org/2000/svg">
<path d="M16.98 8C16.98 3.58172 13.3983 0 8.97998 0C4.5617 0 0.97998 3.58172 0.97998 8C0.97998 12.4183 4.5617 16 8.97998 16C13.3983 16 16.98 12.4183 16.98 8Z" fill="#121212"/>
<path d="M13.5493 10.3192L12.0246 11.9119C11.9912 11.9468 11.9511 11.9745 11.9066 11.9933C11.8621 12.0121 11.8142 12.0216 11.766 12.0212H4.53995C4.50572 12.0213 4.47219 12.0116 4.44329 11.9932C4.42152 11.9801 4.40302 11.9622 4.38917 11.9409C4.37532 11.9196 4.3665 11.8954 4.36335 11.8702C4.36021 11.8449 4.36283 11.8193 4.37101 11.7953C4.3792 11.7712 4.39274 11.7493 4.41062 11.7312L5.93662 10.1392C5.96994 10.1042 6.01008 10.0764 6.05457 10.0575C6.09906 10.0385 6.14695 10.0289 6.19529 10.0292H13.4206C13.4549 10.0294 13.4885 10.0393 13.5173 10.0579C13.539 10.0711 13.5574 10.089 13.5711 10.1104C13.5849 10.1317 13.5937 10.1558 13.5968 10.181C13.6 10.2062 13.5974 10.2318 13.5893 10.2558C13.5811 10.2799 13.5677 10.3018 13.55 10.3199L13.5493 10.3192ZM12.0246 7.11256C11.9912 7.07766 11.9511 7.04995 11.9066 7.03115C11.8621 7.01235 11.8142 7.00285 11.766 7.00323H4.53995C4.50572 7.00318 4.47219 7.01289 4.44329 7.03123C4.42162 7.04445 4.40322 7.06238 4.38945 7.0837C4.37568 7.10502 4.3669 7.12917 4.36376 7.15435C4.36062 7.17953 4.3632 7.2051 4.37131 7.22915C4.37943 7.25319 4.39286 7.2751 4.41062 7.29323L5.93662 8.88523C5.96994 8.92026 6.01008 8.94808 6.05457 8.967C6.09906 8.98592 6.14695 8.99553 6.19529 8.99523H13.4206C13.4549 8.99508 13.4885 8.98513 13.5173 8.96656C13.539 8.95335 13.5574 8.93541 13.5711 8.91409C13.5849 8.89278 13.5937 8.86863 13.5968 8.84344C13.6 8.81826 13.5974 8.79269 13.5893 8.76865C13.5811 8.7446 13.5677 8.72269 13.55 8.70456L12.0253 7.11256H12.0246ZM4.53995 5.96856H11.766C11.8142 5.96845 11.8619 5.95872 11.9063 5.93995C11.9507 5.92118 11.9909 5.89373 12.0246 5.85923L13.55 4.26656C13.5732 4.24216 13.5888 4.2114 13.5946 4.17818C13.6004 4.14496 13.5962 4.11076 13.5826 4.0799C13.5687 4.04895 13.5459 4.02276 13.5173 4.00456C13.4884 3.98623 13.4549 3.97652 13.4206 3.97656H6.19462C6.1464 3.97664 6.09867 3.98635 6.05425 4.00512C6.00983 4.0239 5.96961 4.05136 5.93595 4.0859L4.41129 5.67923C4.38816 5.70345 4.37267 5.73393 4.36675 5.76688C4.36082 5.79984 4.36472 5.83381 4.37795 5.86456C4.39177 5.89578 4.4145 5.92222 4.44329 5.94056C4.47219 5.9589 4.50572 5.96861 4.53995 5.96856Z" fill="url(#paint0_linear_5_2506)"/>
<defs>
<linearGradient id="paint0_linear_5_2506" x1="82.3236" y1="726.115" x2="716.476" y2="-7.92828" gradientUnits="userSpaceOnUse">
<stop offset="0.08" stop-color="#9945FF"/>
<stop offset="0.3" stop-color="#8752F3"/>
<stop offset="0.5" stop-color="#5497D5"/>
<stop offset="0.6" stop-color="#43B4CA"/>
<stop offset="0.72" stop-color="#28E0B9"/>
<stop offset="0.97" stop-color="#19FB9B"/>
</linearGradient>
</defs>
</svg>
