<svg width="100%" height="100%" viewBox="0 0 17 16" fill="none" xmlns="http://www.w3.org/2000/svg">
<path d="M16.98 8C16.98 3.58172 13.3983 0 8.97998 0C4.5617 0 0.97998 3.58172 0.97998 8C0.97998 12.4183 4.5617 16 8.97998 16C13.3983 16 16.98 12.4183 16.98 8Z" fill="#00DE73"/>
<path d="M10.4413 9.43942L12.2933 11.2921L11.4246 12.1614L9.57261 10.3081C9.49496 10.2298 9.4025 10.1678 9.30063 10.1257C9.19876 10.0836 9.08952 10.0622 8.97928 10.0628C8.75395 10.0628 8.54461 10.1494 8.38595 10.3088L6.53395 12.1614L5.66528 11.2921L7.51728 9.43875H10.4413V9.43942ZM7.99595 3.84009L8.67328 6.37009L7.21128 8.90342L4.68061 9.58209L4.36328 8.39342L6.89195 7.71609C7.10861 7.65875 7.28928 7.52009 7.40128 7.32475C7.51461 7.13142 7.54328 6.90475 7.48528 6.68809L6.80861 4.15809L7.99595 3.84009ZM9.96395 3.84009L11.1513 4.15809L10.4746 6.68809C10.4166 6.90475 10.4459 7.13142 10.5586 7.32475C10.6706 7.52009 10.8513 7.65809 11.0679 7.71609L13.5966 8.39342L13.2793 9.58209L10.7499 8.90475L9.28661 6.37009L9.96395 3.84009Z" fill="#F7F9F3"/>
</svg>
