<svg width="100%" height="100%" viewBox="0 0 17 16" fill="none" xmlns="http://www.w3.org/2000/svg">
<path d="M16.98 8C16.98 3.58172 13.3983 0 8.97998 0C4.5617 0 0.97998 3.58172 0.97998 8C0.97998 12.4183 4.5617 16 8.97998 16C13.3983 16 16.98 12.4183 16.98 8Z" fill="#0054FA"/>
<path fill-rule="evenodd" clip-rule="evenodd" d="M6.4567 5.13477L7.14404 10.8501H6.2407L6.1407 9.60677H5.6607L5.5607 10.8501H4.70337L5.3907 5.13477H6.4567ZM5.9087 6.68743H5.88537L5.81537 7.6761L5.7227 8.84943H6.07804L5.97804 7.6761L5.9087 6.68743ZM9.32404 5.13477C9.98004 5.13477 10.382 5.52143 10.382 6.2161V7.62143C10.382 8.30943 9.98004 8.69477 9.32404 8.69477H9.03804V10.8501H8.1187V5.13477H9.32404ZM9.2467 5.8221H9.04604V8.0081H9.24604C9.4007 8.0081 9.4627 7.86877 9.4627 7.62143V6.2161C9.4627 5.96143 9.4007 5.82277 9.2467 5.82277V5.8221ZM11.44 5.13477V10.8501H13.2327V10.0934H12.3594V8.3401H13.1394V7.58343H12.3594V5.89143H13.2327V5.13477H11.44Z" fill="white"/>
</svg>
