<svg width="100%" height="100%" viewBox="0 0 17 16" fill="none" xmlns="http://www.w3.org/2000/svg">
<path d="M16.98 8C16.98 3.58172 13.3983 0 8.97998 0C4.5617 0 0.97998 3.58172 0.97998 8C0.97998 12.4183 4.5617 16 8.97998 16C13.3983 16 16.98 12.4183 16.98 8Z" fill="#6C00F6"/>
<path d="M7.82655 6.65942L6.95988 6.15609L4.36255 7.66475V10.6714L6.95988 12.1754L9.55722 10.6721V5.99542L10.9985 5.16075L12.4399 5.99542V7.66475L10.9985 8.49942L10.1325 7.99675V9.33409L10.9985 9.83742L13.5959 8.33409V5.32675L10.9985 3.82275L8.40122 5.32609V10.0028L6.95988 10.8381L5.51855 10.0034V8.32875L6.95988 7.49409L7.82588 7.99675L7.82655 6.65942Z" fill="white"/>
</svg>
