<svg width="100%" height="100%" viewBox="0 0 17 16" fill="none" xmlns="http://www.w3.org/2000/svg">
<path d="M16.98 8C16.98 3.58172 13.3983 0 8.97998 0C4.5617 0 0.97998 3.58172 0.97998 8C0.97998 12.4183 4.5617 16 8.97998 16C13.3983 16 16.98 12.4183 16.98 8Z" fill="#627EEA"/>
<path d="M8.97876 2V6.43467L12.7274 8.11L8.97876 2Z" fill="white" fill-opacity="0.602"/>
<path d="M8.97865 2L5.22998 8.11L8.97865 6.43533V2Z" fill="white"/>
<path d="M8.97876 10.9841V13.9974L12.7301 8.80811L8.97876 10.9841Z" fill="white" fill-opacity="0.602"/>
<path d="M8.97865 13.9974V10.9841L5.22998 8.80811L8.97865 13.9974Z" fill="white"/>
<path d="M8.97876 10.2867L12.7274 8.11003L8.98009 6.43604L8.97876 10.2867Z" fill="white" fill-opacity="0.2"/>
<path d="M5.22998 8.11003L8.97865 10.2867V6.43604L5.22998 8.11003Z" fill="white" fill-opacity="0.602"/>
</svg>
