<svg width="100%" height="100%" viewBox="0 0 17 16" fill="none" xmlns="http://www.w3.org/2000/svg">
<path d="M16.98 8C16.98 3.58172 13.3983 0 8.97998 0C4.5617 0 0.97998 3.58172 0.97998 8C0.97998 12.4183 4.5617 16 8.97998 16C13.3983 16 16.98 12.4183 16.98 8Z" fill="#E84142"/>
<path fill-rule="evenodd" clip-rule="evenodd" d="M11.5654 7.88811C11.6205 7.85996 11.6815 7.84529 11.7434 7.84529C11.8053 7.84529 11.8663 7.85996 11.9214 7.88811C12.0227 7.93945 12.1014 8.07345 12.2581 8.33811L12.2714 8.35945L13.3847 10.2661L13.4014 10.2934C13.5561 10.5601 13.6347 10.6961 13.6287 10.8081C13.6257 10.8703 13.6079 10.931 13.5768 10.985C13.5458 11.039 13.5023 11.0849 13.4501 11.1188C13.3521 11.1834 13.1867 11.1834 12.8587 11.1834H10.5301C10.2701 11.1834 10.1301 11.1768 10.0441 11.1208C9.99207 11.0866 9.94881 11.0406 9.91779 10.9867C9.88676 10.9327 9.86881 10.8723 9.8654 10.8101C9.8594 10.6954 9.94073 10.5548 10.1034 10.2748L10.1074 10.2681L11.2174 8.36145C11.3807 8.08078 11.4634 7.94145 11.5654 7.88811ZM9.17273 3.03145C9.27673 3.08478 9.3594 3.22811 9.52273 3.51478L10.3107 4.89011L10.3147 4.89745C10.4907 5.20545 10.5801 5.36145 10.6194 5.52545C10.6627 5.7051 10.6627 5.89246 10.6194 6.07211C10.5794 6.23678 10.4914 6.39411 10.3127 6.70611L8.2994 10.2661L8.29406 10.2748C8.11673 10.5854 8.02673 10.7428 7.90206 10.8614C7.76731 10.9906 7.60365 11.0857 7.42473 11.1388C7.29806 11.1734 7.15873 11.1814 6.9314 11.1834H5.16073C4.83406 11.1834 4.6734 11.1834 4.57473 11.1208C4.52281 11.087 4.47958 11.0414 4.44854 10.9878C4.4175 10.9342 4.39952 10.874 4.39606 10.8121C4.39006 10.6961 4.47073 10.5548 4.63206 10.2721L8.4654 3.51478C8.62873 3.22811 8.71073 3.08411 8.8154 3.03145C8.87078 3.00339 8.93198 2.98877 8.99406 2.98877C9.05614 2.98877 9.11735 3.00339 9.17273 3.03145Z" fill="white"/>
</svg>
