<svg width="100%" height="100%" viewBox="0 0 17 16" fill="none" xmlns="http://www.w3.org/2000/svg">
<path d="M16.98 8C16.98 3.58172 13.3983 0 8.97998 0C4.5617 0 0.97998 3.58172 0.97998 8C0.97998 12.4183 4.5617 16 8.97998 16C13.3983 16 16.98 12.4183 16.98 8Z" fill="#2C374B"/>
<path d="M13.3121 5.16996C13.2347 5.09662 9.7814 3.08662 9.38274 2.88329C9.20674 2.79196 8.88274 2.76796 8.69674 2.83262C8.48074 2.90329 4.8254 5.03529 4.67674 5.17396C4.59674 5.25196 4.52874 5.34062 4.47407 5.43796C4.41007 5.56862 4.40607 5.66062 4.39607 8.09662L4.3894 10.6166L4.85607 10.89C5.11274 11.0393 5.34274 11.1633 5.3594 11.17C5.39607 11.1806 8.71407 5.89662 8.71407 5.82596C8.71407 5.77529 7.96407 5.78596 7.6974 5.83929C7.42007 5.90062 7.17674 6.02196 7.03807 6.17062C6.98074 6.23129 6.51807 6.92729 6.0114 7.71729C5.6994 8.20929 5.38274 8.69796 5.0614 9.18396C5.04474 9.20396 5.0314 8.47062 5.0314 7.46796V5.71796L5.12607 5.63329C5.28807 5.48462 8.8794 3.42662 8.97407 3.42662C9.0654 3.42662 9.11607 3.45462 9.9474 3.93396C10.2274 4.09596 10.9774 4.52796 11.6194 4.89396C12.2607 5.26196 12.8194 5.59996 12.8627 5.64396L12.9367 5.72729V9.36262L11.1541 6.62662C11.0874 6.51529 11.0167 6.40662 10.9421 6.30129L10.9361 6.29129C10.9227 6.27529 10.9134 6.26596 10.9101 6.26596C10.8967 6.26929 10.8047 6.41729 10.3967 7.10662C10.3454 7.19129 10.2714 7.31996 10.2341 7.39129L10.1634 7.51929L10.1621 7.52129L10.2134 7.60529L10.2507 7.67129C10.2627 7.69129 10.2754 7.71062 10.2874 7.72796L10.4054 7.92262C10.4201 7.95462 10.4407 7.99062 10.4641 8.02596C10.5174 8.10729 10.5887 8.22196 10.6227 8.28262C10.6305 8.29707 10.6395 8.31089 10.6494 8.32396L12.1114 10.7286L11.9374 10.83C11.8374 10.886 11.7907 10.9113 11.7607 10.9126L9.93274 8.07129L9.88607 7.99529L9.72074 8.26596L9.70874 8.28596L8.99474 9.44662L8.99274 9.44796L10.4201 11.692C10.2387 11.8346 9.03274 12.6613 8.95407 12.6613C8.8674 12.6613 7.28807 11.5766 7.30874 11.5393C7.3154 11.5253 7.80207 10.6993 8.3934 9.69596L8.39474 9.69462L9.9374 7.07662C10.4441 6.21862 10.6534 5.83662 10.6194 5.82662C10.5961 5.81662 10.2581 5.81329 9.87274 5.81996L9.17007 5.82996L7.54807 8.50196C6.9514 9.48862 6.41207 10.3773 6.10807 10.878V10.8786L5.85274 11.2993L5.77807 11.4213L7.03474 12.1446C7.72807 12.5433 8.38674 12.918 8.50407 12.982C8.75074 13.114 9.03474 13.1573 9.23474 13.09C9.3654 13.05 13.0787 10.9113 13.2647 10.7726C13.3221 10.7286 13.4201 10.5966 13.4774 10.4793L13.5787 10.2693L13.5721 7.92062L13.5621 5.57329L13.4807 5.41462C13.4362 5.32581 13.3794 5.24302 13.3121 5.16996Z" fill="white"/>
<path d="M13.0052 9.45871L10.9119 6.24805L10.1272 7.50605L12.1525 10.8474L13.0392 10.4207L13.0052 9.45871ZM11.9852 11.2107L9.89188 8.00005L8.99121 9.43605L10.6712 12.126L11.7459 11.69L11.9852 11.2107Z" fill="#24A2EE"/>
<path d="M5.06672 5.74676L8.98005 3.49343L12.8934 5.74676V10.2534L8.98005 12.5068L6.10872 10.8534L5.72538 11.4774L8.87338 13.2914C8.94005 13.3294 9.02205 13.3294 9.08805 13.2914L13.5181 10.7388C13.5509 10.72 13.5781 10.693 13.5971 10.6603C13.6161 10.6276 13.6261 10.5905 13.6261 10.5528V5.44809C13.6262 5.41021 13.6163 5.37296 13.5973 5.34016C13.5783 5.30737 13.551 5.2802 13.5181 5.26143L9.08672 2.71009C9.05402 2.69145 9.01703 2.68164 8.97938 2.68164C8.94174 2.68164 8.90475 2.69145 8.87205 2.71009L4.44272 5.26209C4.4099 5.28081 4.38262 5.30787 4.36365 5.34054C4.34468 5.37321 4.3347 5.41032 4.33472 5.44809V10.5521C4.33472 10.6288 4.37605 10.7001 4.44272 10.7388L5.32805 11.2481L5.72272 10.6308L5.06738 10.2528V5.74743L5.06672 5.74676Z" fill="#98BCDC"/>
<path d="M10.6814 5.79722L9.17005 5.81789L5.72405 11.4792L6.94005 12.1832L10.6814 5.79722ZM6.92805 6.31322C7.27338 5.74856 8.26138 5.75056 8.71338 5.82256L5.32672 11.2479L4.70538 10.8906C4.41405 10.7239 4.36538 10.7192 4.33472 10.5639V10.2639C5.05472 9.18189 6.58338 6.87722 6.92805 6.31322Z" fill="white"/>
</svg>
